<?xml version="1.0" encoding="utf-8"?>
<!-- Generator: Adobe Illustrator 24.0.0, SVG Export Plug-In . SVG Version: 6.00 Build 0)  -->
<svg version="1.1" xmlns="http://www.w3.org/2000/svg" xmlns:xlink="http://www.w3.org/1999/xlink" x="0px" y="0px"
	 viewBox="0 0 989.8 1185.5" style="enable-background:new 0 0 989.8 1185.5;" xml:space="preserve">
<style type="text/css">
	.st0{fill:#2E58AC;}
	.st1{fill:#5580D7;}
	.st2{fill:#F6F3E7;}
	.st3{fill:#FFFFFF;}
	.st4{fill:none;}
	.st5{display:none;fill:#1E386C;}
	.st6{font-family:'Quicksand-Bold';}
	.st7{font-size:180px;}
	.st8{font-family:'MyriadPro-Regular';}
	.st9{font-size:72px;}
	.st10{fill:#963728;}
	.st11{fill:#B1472D;}
</style>
<g id="chrono-bleu">
	<g id="chrono-bleu_1_">
		<rect x="430.92" y="120.43" class="st0" width="127.96" height="99.73"/>
		
			<rect x="136.85" y="219.78" transform="matrix(0.8284 -0.5601 0.5601 0.8284 -121.4081 142.9713)" class="st0" width="71.61" height="99.73"/>
		
			<rect x="772.61" y="219.78" transform="matrix(-0.8284 -0.5601 0.5601 -0.8284 1327.0952 945.8315)" class="st0" width="71.61" height="99.73"/>
		<circle class="st1" cx="494.9" cy="690.6" r="494.9"/>
		<circle class="st2" cx="494.9" cy="690.6" r="427.15"/>
		<circle class="st3" cx="494.9" cy="690.6" r="302.96"/>
		<path class="st1" d="M613.68,133.6H376.12c-6.6,0-12-5.4-12-12V12c0-6.6,5.4-12,12-12h237.56c6.6,0,12,5.4,12,12v109.6
			C625.68,128.2,620.28,133.6,613.68,133.6z"/>
		<path class="st1" d="M198.42,214.13l-87.33,61.81c-5.39,3.81-12.91,2.53-16.73-2.86l-52.21-73.76
			c-3.81-5.39-2.53-12.91,2.86-16.73l87.33-61.81c5.39-3.81,12.91-2.53,16.73,2.86l52.21,73.76
			C205.09,202.79,203.81,210.32,198.42,214.13z"/>
		<path class="st1" d="M782.65,214.13l87.33,61.81c5.39,3.81,12.91,2.53,16.73-2.86l52.21-73.76c3.81-5.39,2.53-12.91-2.86-16.73
			l-87.33-61.81c-5.39-3.81-12.91-2.53-16.73,2.86l-52.21,73.76C775.98,202.79,777.27,210.32,782.65,214.13z"/>
	</g>
	<rect x="235.68" y="622.74" class="st4" width="512.43" height="135.72"/>
	<text id="chiffres_1_" transform="matrix(1 0 0 1 288.5924 750.535)" class="st5 st6 st7">40:00</text>
	<rect x="411.47" y="656.97" class="st4" width="163.53" height="51.25"/>
	<text transform="matrix(1 0 0 1 411.466 708.0908)" class="st8 st9">20:30</text>
</g>
<g id="chrono-rouge">
	<g id="chrono-rouge_1_">
		<rect x="1723.19" y="120.43" class="st10" width="127.96" height="99.73"/>
		
			<rect x="1429.12" y="219.78" transform="matrix(0.8284 -0.5601 0.5601 0.8284 100.3167 866.7775)" class="st10" width="71.61" height="99.73"/>
		
			<rect x="2064.88" y="219.78" transform="matrix(-0.8284 -0.5601 0.5601 -0.8284 3689.9131 1669.6377)" class="st10" width="71.61" height="99.73"/>
		<circle class="st11" cx="1787.17" cy="690.6" r="494.9"/>
		<circle class="st2" cx="1787.17" cy="690.6" r="427.15"/>
		<circle class="st3" cx="1787.17" cy="690.6" r="302.96"/>
		<path class="st11" d="M1905.95,133.6h-237.56c-6.6,0-12-5.4-12-12V12c0-6.6,5.4-12,12-12h237.56c6.6,0,12,5.4,12,12v109.6
			C1917.95,128.2,1912.55,133.6,1905.95,133.6z"/>
		<path class="st11" d="M1490.69,214.13l-87.33,61.81c-5.39,3.81-12.91,2.53-16.73-2.86l-52.21-73.76
			c-3.81-5.39-2.53-12.91,2.86-16.73l87.33-61.81c5.39-3.81,12.91-2.53,16.73,2.86l52.21,73.76
			C1497.36,202.79,1496.08,210.32,1490.69,214.13z"/>
		<path class="st11" d="M2074.93,214.13l87.33,61.81c5.39,3.81,12.91,2.53,16.73-2.86l52.21-73.76c3.81-5.39,2.52-12.91-2.86-16.73
			L2141,120.78c-5.39-3.81-12.91-2.53-16.73,2.86l-52.21,73.76C2068.25,202.79,2069.54,210.32,2074.93,214.13z"/>
	</g>
	<rect x="1527.95" y="622.74" class="st4" width="512.43" height="135.72"/>
	<text id="chiffres" transform="matrix(1 0 0 1 1580.8636 750.535)" class="st6 st7" style="display:none;fill:#963728;">40:00</text>
</g>
</svg>
